<svg width="291" height="55" viewBox="0 0 291 55" fill="none" xmlns="http://www.w3.org/2000/svg">
<path d="M0.806818 5V3.90909C0.806818 3.58712 0.867424 3.24811 0.988636 2.89205C1.10985 2.53598 1.27841 2.19508 1.49432 1.86932C1.71023 1.54356 1.96402 1.26515 2.25568 1.03409L3.09659 1.63636C2.86553 1.97348 2.66856 2.32576 2.50568 2.69318C2.3428 3.06061 2.26136 3.46023 2.26136 3.89205V5H0.806818ZM3.70455 5V3.90909C3.70455 3.58712 3.76515 3.24811 3.88636 2.89205C4.00758 2.53598 4.17614 2.19508 4.39205 1.86932C4.60795 1.54356 4.86174 1.26515 5.15341 1.03409L5.99432 1.63636C5.76326 1.97348 5.56629 2.32576 5.40341 2.69318C5.24053 3.06061 5.15909 3.46023 5.15909 3.89205V5H3.70455ZM7.59091 13V1.36364H9.34659V11.4886H14.6193V13H7.59091ZM20.1619 13.1761C19.3438 13.1761 18.6297 12.9886 18.0199 12.6136C17.41 12.2386 16.9366 11.714 16.5994 11.0398C16.2623 10.3655 16.0938 9.57765 16.0938 8.67614C16.0938 7.77083 16.2623 6.97917 16.5994 6.30114C16.9366 5.62311 17.41 5.09659 18.0199 4.72159C18.6297 4.34659 19.3438 4.15909 20.1619 4.15909C20.9801 4.15909 21.6941 4.34659 22.304 4.72159C22.9138 5.09659 23.3873 5.62311 23.7244 6.30114C24.0616 6.97917 24.2301 7.77083 24.2301 8.67614C24.2301 9.57765 24.0616 10.3655 23.7244 11.0398C23.3873 11.714 22.9138 12.2386 22.304 12.6136C21.6941 12.9886 20.9801 13.1761 20.1619 13.1761ZM20.1676 11.75C20.6979 11.75 21.1373 11.6098 21.4858 11.3295C21.8343 11.0492 22.0919 10.6761 22.2585 10.2102C22.429 9.74432 22.5142 9.23106 22.5142 8.67045C22.5142 8.11364 22.429 7.60227 22.2585 7.13636C22.0919 6.66667 21.8343 6.28977 21.4858 6.00568C21.1373 5.72159 20.6979 5.57955 20.1676 5.57955C19.6335 5.57955 19.1903 5.72159 18.8381 6.00568C18.4896 6.28977 18.2301 6.66667 18.0597 7.13636C17.893 7.60227 17.8097 8.11364 17.8097 8.67045C17.8097 9.23106 17.893 9.74432 18.0597 10.2102C18.2301 10.6761 18.4896 11.0492 18.8381 11.3295C19.1903 11.6098 19.6335 11.75 20.1676 11.75ZM33.2955 4.27273L30.1307 13H28.3125L25.142 4.27273H26.9659L29.1761 10.9886H29.267L31.4716 4.27273H33.2955ZM38.3565 13.1761C37.4967 13.1761 36.7562 12.9924 36.1349 12.625C35.5175 12.2538 35.0402 11.733 34.7031 11.0625C34.3698 10.3883 34.2031 9.59848 34.2031 8.69318C34.2031 7.79924 34.3698 7.01136 34.7031 6.32955C35.0402 5.64773 35.5099 5.11553 36.1122 4.73295C36.7183 4.35038 37.4266 4.15909 38.2372 4.15909C38.7296 4.15909 39.2069 4.24053 39.669 4.40341C40.1312 4.56629 40.5459 4.82197 40.9134 5.17045C41.2808 5.51894 41.5705 5.97159 41.7827 6.52841C41.9948 7.08144 42.1009 7.75379 42.1009 8.54545V9.14773H35.1634V7.875H40.4361C40.4361 7.42803 40.3452 7.0322 40.1634 6.6875C39.9815 6.33902 39.7259 6.06439 39.3963 5.86364C39.0705 5.66288 38.688 5.5625 38.2486 5.5625C37.7713 5.5625 37.3546 5.67992 36.9986 5.91477C36.6463 6.14583 36.3736 6.44886 36.1804 6.82386C35.991 7.19508 35.8963 7.59848 35.8963 8.03409V9.02841C35.8963 9.61174 35.9986 10.108 36.2031 10.517C36.4115 10.9261 36.7012 11.2386 37.0724 11.4545C37.4437 11.6667 37.8774 11.7727 38.3736 11.7727C38.6955 11.7727 38.9891 11.7273 39.2543 11.6364C39.5194 11.5417 39.7486 11.4015 39.9418 11.2159C40.1349 11.0303 40.2827 10.8011 40.3849 10.5284L41.9929 10.8182C41.8641 11.2917 41.633 11.7064 41.2997 12.0625C40.9702 12.4148 40.5554 12.6894 40.0554 12.8864C39.5592 13.0795 38.9929 13.1761 38.3565 13.1761ZM49.919 7.81818V13H48.2202V1.36364H49.8963V5.69318H50.0043C50.2088 5.22348 50.5213 4.85038 50.9418 4.57386C51.3622 4.29735 51.9115 4.15909 52.5895 4.15909C53.188 4.15909 53.7107 4.2822 54.1577 4.52841C54.6084 4.77462 54.9569 5.14205 55.2031 5.63068C55.4531 6.11553 55.5781 6.72159 55.5781 7.44886V13H53.8793V7.65341C53.8793 7.01326 53.7145 6.51705 53.3849 6.16477C53.0554 5.80871 52.5971 5.63068 52.0099 5.63068C51.6084 5.63068 51.2486 5.71591 50.9304 5.88636C50.616 6.05682 50.3679 6.30682 50.1861 6.63636C50.008 6.96212 49.919 7.35606 49.919 7.81818ZM61.5213 13.1761C60.7031 13.1761 59.9891 12.9886 59.3793 12.6136C58.7694 12.2386 58.2959 11.714 57.9588 11.0398C57.6217 10.3655 57.4531 9.57765 57.4531 8.67614C57.4531 7.77083 57.6217 6.97917 57.9588 6.30114C58.2959 5.62311 58.7694 5.09659 59.3793 4.72159C59.9891 4.34659 60.7031 4.15909 61.5213 4.15909C62.3395 4.15909 63.0535 4.34659 63.6634 4.72159C64.2732 5.09659 64.7467 5.62311 65.0838 6.30114C65.4209 6.97917 65.5895 7.77083 65.5895 8.67614C65.5895 9.57765 65.4209 10.3655 65.0838 11.0398C64.7467 11.714 64.2732 12.2386 63.6634 12.6136C63.0535 12.9886 62.3395 13.1761 61.5213 13.1761ZM61.527 11.75C62.0573 11.75 62.4967 11.6098 62.8452 11.3295C63.1937 11.0492 63.4512 10.6761 63.6179 10.2102C63.7884 9.74432 63.8736 9.23106 63.8736 8.67045C63.8736 8.11364 63.7884 7.60227 63.6179 7.13636C63.4512 6.66667 63.1937 6.28977 62.8452 6.00568C62.4967 5.72159 62.0573 5.57955 61.527 5.57955C60.9929 5.57955 60.5497 5.72159 60.1974 6.00568C59.849 6.28977 59.5895 6.66667 59.419 7.13636C59.2524 7.60227 59.169 8.11364 59.169 8.67045C59.169 9.23106 59.2524 9.74432 59.419 10.2102C59.5895 10.6761 59.849 11.0492 60.1974 11.3295C60.5497 11.6098 60.9929 11.75 61.527 11.75ZM69.1122 13L66.544 4.27273H68.2997L70.0099 10.6818H70.0952L71.8111 4.27273H73.5668L75.2713 10.6534H75.3565L77.0554 4.27273H78.8111L76.2486 13H74.5156L72.7429 6.69886H72.6122L70.8395 13H69.1122ZM84.794 13V1.36364H86.5497V11.4886H91.8224V13H84.794ZM97.3651 13.1761C96.5469 13.1761 95.8329 12.9886 95.223 12.6136C94.6132 12.2386 94.1397 11.714 93.8026 11.0398C93.4654 10.3655 93.2969 9.57765 93.2969 8.67614C93.2969 7.77083 93.4654 6.97917 93.8026 6.30114C94.1397 5.62311 94.6132 5.09659 95.223 4.72159C95.8329 4.34659 96.5469 4.15909 97.3651 4.15909C98.1832 4.15909 98.8973 4.34659 99.5071 4.72159C100.117 5.09659 100.59 5.62311 100.928 6.30114C101.265 6.97917 101.433 7.77083 101.433 8.67614C101.433 9.57765 101.265 10.3655 100.928 11.0398C100.59 11.714 100.117 12.2386 99.5071 12.6136C98.8973 12.9886 98.1832 13.1761 97.3651 13.1761ZM97.3707 11.75C97.901 11.75 98.3404 11.6098 98.6889 11.3295C99.0374 11.0492 99.295 10.6761 99.4616 10.2102C99.6321 9.74432 99.7173 9.23106 99.7173 8.67045C99.7173 8.11364 99.6321 7.60227 99.4616 7.13636C99.295 6.66667 99.0374 6.28977 98.6889 6.00568C98.3404 5.72159 97.901 5.57955 97.3707 5.57955C96.8366 5.57955 96.3935 5.72159 96.0412 6.00568C95.6927 6.28977 95.4332 6.66667 95.2628 7.13636C95.0961 7.60227 95.0128 8.11364 95.0128 8.67045C95.0128 9.23106 95.0961 9.74432 95.2628 10.2102C95.4332 10.6761 95.6927 11.0492 96.0412 11.3295C96.3935 11.6098 96.8366 11.75 97.3707 11.75ZM107.006 13.1761C106.161 13.1761 105.434 12.9848 104.824 12.6023C104.218 12.2159 103.752 11.6837 103.426 11.0057C103.1 10.3277 102.938 9.55114 102.938 8.67614C102.938 7.78977 103.104 7.00758 103.438 6.32955C103.771 5.64773 104.241 5.11553 104.847 4.73295C105.453 4.35038 106.167 4.15909 106.989 4.15909C107.652 4.15909 108.242 4.2822 108.761 4.52841C109.28 4.77083 109.699 5.11174 110.017 5.55114C110.339 5.99053 110.53 6.50379 110.591 7.09091H108.938C108.847 6.68182 108.638 6.32955 108.312 6.03409C107.991 5.73864 107.559 5.59091 107.017 5.59091C106.544 5.59091 106.129 5.71591 105.773 5.96591C105.42 6.21212 105.146 6.56439 104.949 7.02273C104.752 7.47727 104.653 8.01515 104.653 8.63636C104.653 9.27273 104.75 9.82197 104.943 10.2841C105.136 10.7462 105.409 11.1042 105.761 11.358C106.117 11.6117 106.536 11.7386 107.017 11.7386C107.339 11.7386 107.631 11.6799 107.892 11.5625C108.157 11.4413 108.379 11.2689 108.557 11.0455C108.739 10.822 108.866 10.553 108.938 10.2386H110.591C110.53 10.803 110.347 11.3068 110.04 11.75C109.733 12.1932 109.322 12.5417 108.807 12.7955C108.295 13.0492 107.695 13.1761 107.006 13.1761ZM114.107 7.81818V13H112.408V1.36364H114.084V5.69318H114.192C114.396 5.22348 114.709 4.85038 115.129 4.57386C115.55 4.29735 116.099 4.15909 116.777 4.15909C117.375 4.15909 117.898 4.2822 118.345 4.52841C118.796 4.77462 119.144 5.14205 119.391 5.63068C119.641 6.11553 119.766 6.72159 119.766 7.44886V13H118.067V7.65341C118.067 7.01326 117.902 6.51705 117.572 6.16477C117.243 5.80871 116.785 5.63068 116.197 5.63068C115.796 5.63068 115.436 5.71591 115.118 5.88636C114.804 6.05682 114.555 6.30682 114.374 6.63636C114.196 6.96212 114.107 7.35606 114.107 7.81818ZM126.267 13V4.27273H127.966V13H126.267ZM127.125 2.92614C126.83 2.92614 126.576 2.82765 126.364 2.63068C126.155 2.42992 126.051 2.19129 126.051 1.91477C126.051 1.63447 126.155 1.39583 126.364 1.19886C126.576 0.998106 126.83 0.897727 127.125 0.897727C127.42 0.897727 127.672 0.998106 127.881 1.19886C128.093 1.39583 128.199 1.63447 128.199 1.91477C128.199 2.19129 128.093 2.42992 127.881 2.63068C127.672 2.82765 127.42 2.92614 127.125 2.92614ZM131.95 7.81818V13H130.251V4.27273H131.882V5.69318H131.99C132.191 5.23106 132.505 4.85985 132.933 4.57955C133.365 4.29924 133.909 4.15909 134.564 4.15909C135.159 4.15909 135.679 4.28409 136.126 4.53409C136.573 4.7803 136.92 5.14773 137.166 5.63636C137.412 6.125 137.536 6.72917 137.536 7.44886V13H135.837V7.65341C135.837 7.02083 135.672 6.52652 135.342 6.17045C135.013 5.81061 134.56 5.63068 133.984 5.63068C133.59 5.63068 133.24 5.71591 132.933 5.88636C132.63 6.05682 132.39 6.30682 132.212 6.63636C132.037 6.96212 131.95 7.35606 131.95 7.81818ZM143.888 4.27273V5.63636H139.121V4.27273H143.888ZM140.399 2.18182H142.098V10.4375C142.098 10.767 142.147 11.0152 142.246 11.1818C142.344 11.3447 142.471 11.4564 142.626 11.517C142.786 11.5739 142.958 11.6023 143.143 11.6023C143.28 11.6023 143.399 11.5928 143.501 11.5739C143.604 11.5549 143.683 11.5398 143.74 11.5284L144.047 12.9318C143.948 12.9697 143.808 13.0076 143.626 13.0455C143.445 13.0871 143.217 13.1098 142.945 13.1136C142.498 13.1212 142.081 13.0417 141.695 12.875C141.308 12.7083 140.996 12.4508 140.757 12.1023C140.518 11.7538 140.399 11.3163 140.399 10.7898V2.18182ZM149.435 13.1761C148.575 13.1761 147.834 12.9924 147.213 12.625C146.596 12.2538 146.118 11.733 145.781 11.0625C145.448 10.3883 145.281 9.59848 145.281 8.69318C145.281 7.79924 145.448 7.01136 145.781 6.32955C146.118 5.64773 146.588 5.11553 147.19 4.73295C147.796 4.35038 148.505 4.15909 149.315 4.15909C149.808 4.15909 150.285 4.24053 150.747 4.40341C151.209 4.56629 151.624 4.82197 151.991 5.17045C152.359 5.51894 152.649 5.97159 152.861 6.52841C153.073 7.08144 153.179 7.75379 153.179 8.54545V9.14773H146.241V7.875H151.514C151.514 7.42803 151.423 7.0322 151.241 6.6875C151.06 6.33902 150.804 6.06439 150.474 5.86364C150.149 5.66288 149.766 5.5625 149.327 5.5625C148.849 5.5625 148.433 5.67992 148.077 5.91477C147.724 6.14583 147.452 6.44886 147.259 6.82386C147.069 7.19508 146.974 7.59848 146.974 8.03409V9.02841C146.974 9.61174 147.077 10.108 147.281 10.517C147.49 10.9261 147.779 11.2386 148.151 11.4545C148.522 11.6667 148.955 11.7727 149.452 11.7727C149.774 11.7727 150.067 11.7273 150.332 11.6364C150.598 11.5417 150.827 11.4015 151.02 11.2159C151.213 11.0303 151.361 10.8011 151.463 10.5284L153.071 10.8182C152.942 11.2917 152.711 11.7064 152.378 12.0625C152.048 12.4148 151.634 12.6894 151.134 12.8864C150.637 13.0795 150.071 13.1761 149.435 13.1761ZM158.723 16.4545C158.03 16.4545 157.433 16.3636 156.933 16.1818C156.437 16 156.032 15.7595 155.717 15.4602C155.403 15.161 155.168 14.8333 155.013 14.4773L156.473 13.875C156.575 14.0417 156.712 14.2178 156.882 14.4034C157.056 14.5928 157.291 14.7538 157.587 14.8864C157.886 15.0189 158.27 15.0852 158.74 15.0852C159.384 15.0852 159.916 14.928 160.337 14.6136C160.757 14.303 160.967 13.8068 160.967 13.125V11.4091H160.859C160.757 11.5947 160.609 11.8011 160.416 12.0284C160.227 12.2557 159.965 12.4527 159.632 12.6193C159.299 12.786 158.865 12.8693 158.331 12.8693C157.642 12.8693 157.02 12.7083 156.467 12.3864C155.918 12.0606 155.482 11.5814 155.161 10.9489C154.842 10.3125 154.683 9.5303 154.683 8.60227C154.683 7.67424 154.84 6.87879 155.155 6.21591C155.473 5.55303 155.909 5.04545 156.462 4.69318C157.015 4.33712 157.642 4.15909 158.342 4.15909C158.884 4.15909 159.321 4.25 159.655 4.43182C159.988 4.60985 160.248 4.81818 160.433 5.05682C160.623 5.29545 160.768 5.50568 160.871 5.6875H160.996V4.27273H162.661V13.1932C162.661 13.9432 162.486 14.5587 162.138 15.0398C161.789 15.5208 161.318 15.8769 160.723 16.108C160.132 16.339 159.465 16.4545 158.723 16.4545ZM158.706 11.4602C159.195 11.4602 159.607 11.3466 159.945 11.1193C160.286 10.8883 160.543 10.5587 160.717 10.1307C160.895 9.69886 160.984 9.18182 160.984 8.57955C160.984 7.99242 160.897 7.47538 160.723 7.02841C160.549 6.58144 160.293 6.23295 159.956 5.98295C159.619 5.72917 159.202 5.60227 158.706 5.60227C158.195 5.60227 157.768 5.73485 157.428 6C157.087 6.26136 156.829 6.61742 156.655 7.06818C156.484 7.51894 156.399 8.02273 156.399 8.57955C156.399 9.15152 156.486 9.65341 156.661 10.0852C156.835 10.517 157.092 10.8542 157.433 11.0966C157.778 11.339 158.202 11.4602 158.706 11.4602ZM164.939 13V4.27273H166.581V5.65909H166.672C166.831 5.18939 167.111 4.82008 167.513 4.55114C167.918 4.27841 168.376 4.14205 168.888 4.14205C168.994 4.14205 169.119 4.14583 169.263 4.15341C169.411 4.16098 169.526 4.17045 169.609 4.18182V5.80682C169.541 5.78788 169.42 5.76705 169.246 5.74432C169.071 5.7178 168.897 5.70455 168.723 5.70455C168.321 5.70455 167.964 5.78977 167.649 5.96023C167.339 6.12689 167.092 6.35985 166.911 6.65909C166.729 6.95455 166.638 7.29167 166.638 7.67045V13H164.939ZM173.541 13.1932C172.988 13.1932 172.488 13.0909 172.041 12.8864C171.594 12.678 171.24 12.3769 170.979 11.983C170.721 11.589 170.592 11.1061 170.592 10.5341C170.592 10.0417 170.687 9.63636 170.876 9.31818C171.066 9 171.321 8.74811 171.643 8.5625C171.965 8.37689 172.325 8.23674 172.723 8.14205C173.121 8.04735 173.526 7.97538 173.939 7.92614C174.462 7.86553 174.886 7.81629 175.212 7.77841C175.537 7.73674 175.774 7.67045 175.922 7.57955C176.07 7.48864 176.143 7.34091 176.143 7.13636V7.09659C176.143 6.60038 176.003 6.21591 175.723 5.94318C175.446 5.67045 175.034 5.53409 174.484 5.53409C173.912 5.53409 173.462 5.66098 173.132 5.91477C172.806 6.16477 172.581 6.44318 172.456 6.75L170.859 6.38636C171.049 5.85606 171.325 5.42803 171.689 5.10227C172.056 4.77273 172.479 4.53409 172.956 4.38636C173.433 4.23485 173.935 4.15909 174.462 4.15909C174.81 4.15909 175.179 4.20076 175.57 4.28409C175.964 4.36364 176.331 4.51136 176.672 4.72727C177.017 4.94318 177.299 5.25189 177.518 5.65341C177.738 6.05114 177.848 6.56818 177.848 7.20455V13H176.189V11.8068H176.121C176.011 12.0265 175.846 12.2424 175.626 12.4545C175.407 12.6667 175.125 12.8428 174.78 12.983C174.435 13.1231 174.022 13.1932 173.541 13.1932ZM173.911 11.8295C174.38 11.8295 174.782 11.7367 175.115 11.5511C175.452 11.3655 175.708 11.1231 175.882 10.8239C176.06 10.5208 176.149 10.197 176.149 9.85227V8.72727C176.089 8.78788 175.971 8.8447 175.797 8.89773C175.626 8.94697 175.431 8.99053 175.212 9.02841C174.992 9.0625 174.778 9.0947 174.57 9.125C174.361 9.15152 174.187 9.17424 174.047 9.19318C173.717 9.23485 173.416 9.30492 173.143 9.40341C172.875 9.50189 172.659 9.64394 172.496 9.82955C172.337 10.0114 172.257 10.2538 172.257 10.5568C172.257 10.9773 172.412 11.2955 172.723 11.5114C173.034 11.7235 173.429 11.8295 173.911 11.8295ZM184.185 4.27273V5.63636H179.418V4.27273H184.185ZM180.696 2.18182H182.395V10.4375C182.395 10.767 182.444 11.0152 182.543 11.1818C182.641 11.3447 182.768 11.4564 182.923 11.517C183.082 11.5739 183.255 11.6023 183.44 11.6023C183.577 11.6023 183.696 11.5928 183.798 11.5739C183.901 11.5549 183.98 11.5398 184.037 11.5284L184.344 12.9318C184.245 12.9697 184.105 13.0076 183.923 13.0455C183.741 13.0871 183.514 13.1098 183.241 13.1136C182.795 13.1212 182.378 13.0417 181.991 12.875C181.605 12.7083 181.293 12.4508 181.054 12.1023C180.815 11.7538 180.696 11.3163 180.696 10.7898V2.18182ZM189.732 13.1761C188.872 13.1761 188.131 12.9924 187.51 12.625C186.893 12.2538 186.415 11.733 186.078 11.0625C185.745 10.3883 185.578 9.59848 185.578 8.69318C185.578 7.79924 185.745 7.01136 186.078 6.32955C186.415 5.64773 186.885 5.11553 187.487 4.73295C188.093 4.35038 188.802 4.15909 189.612 4.15909C190.105 4.15909 190.582 4.24053 191.044 4.40341C191.506 4.56629 191.921 4.82197 192.288 5.17045C192.656 5.51894 192.946 5.97159 193.158 6.52841C193.37 7.08144 193.476 7.75379 193.476 8.54545V9.14773H186.538V7.875H191.811C191.811 7.42803 191.72 7.0322 191.538 6.6875C191.357 6.33902 191.101 6.06439 190.771 5.86364C190.446 5.66288 190.063 5.5625 189.624 5.5625C189.146 5.5625 188.73 5.67992 188.374 5.91477C188.021 6.14583 187.749 6.44886 187.555 6.82386C187.366 7.19508 187.271 7.59848 187.271 8.03409V9.02841C187.271 9.61174 187.374 10.108 187.578 10.517C187.786 10.9261 188.076 11.2386 188.447 11.4545C188.819 11.6667 189.252 11.7727 189.749 11.7727C190.071 11.7727 190.364 11.7273 190.629 11.6364C190.894 11.5417 191.124 11.4015 191.317 11.2159C191.51 11.0303 191.658 10.8011 191.76 10.5284L193.368 10.8182C193.239 11.2917 193.008 11.7064 192.675 12.0625C192.345 12.4148 191.93 12.6894 191.43 12.8864C190.934 13.0795 190.368 13.1761 189.732 13.1761ZM201.901 6.40341L200.361 6.67614C200.296 6.47917 200.194 6.29167 200.054 6.11364C199.918 5.93561 199.732 5.78977 199.497 5.67614C199.262 5.5625 198.969 5.50568 198.616 5.50568C198.135 5.50568 197.734 5.61364 197.412 5.82955C197.09 6.04167 196.929 6.31629 196.929 6.65341C196.929 6.94508 197.037 7.17992 197.253 7.35795C197.469 7.53598 197.817 7.68182 198.298 7.79545L199.685 8.11364C200.488 8.29924 201.086 8.58523 201.48 8.97159C201.874 9.35795 202.071 9.85985 202.071 10.4773C202.071 11 201.92 11.4659 201.616 11.875C201.317 12.2803 200.899 12.5985 200.361 12.8295C199.827 13.0606 199.207 13.1761 198.503 13.1761C197.526 13.1761 196.728 12.9678 196.111 12.5511C195.493 12.1307 195.115 11.5341 194.974 10.7614L196.616 10.5114C196.719 10.9394 196.929 11.2633 197.247 11.483C197.565 11.6989 197.98 11.8068 198.491 11.8068C199.048 11.8068 199.493 11.6913 199.827 11.4602C200.16 11.2254 200.327 10.9394 200.327 10.6023C200.327 10.3295 200.224 10.1004 200.02 9.91477C199.819 9.72917 199.51 9.58902 199.094 9.49432L197.616 9.17045C196.802 8.98485 196.2 8.68939 195.81 8.28409C195.423 7.87879 195.23 7.36553 195.23 6.74432C195.23 6.22917 195.374 5.77841 195.662 5.39205C195.95 5.00568 196.348 4.70455 196.855 4.48864C197.363 4.26894 197.944 4.15909 198.599 4.15909C199.543 4.15909 200.285 4.36364 200.827 4.77273C201.368 5.17803 201.726 5.72159 201.901 6.40341ZM208.173 16.2727V4.27273H209.832V5.6875H209.974C210.073 5.50568 210.215 5.29545 210.401 5.05682C210.586 4.81818 210.844 4.60985 211.173 4.43182C211.503 4.25 211.938 4.15909 212.48 4.15909C213.185 4.15909 213.813 4.33712 214.366 4.69318C214.92 5.04924 215.353 5.5625 215.668 6.23295C215.986 6.90341 216.145 7.71023 216.145 8.65341C216.145 9.59659 215.988 10.4053 215.673 11.0795C215.359 11.75 214.927 12.267 214.378 12.6307C213.829 12.9905 213.202 13.1705 212.497 13.1705C211.967 13.1705 211.533 13.0814 211.196 12.9034C210.863 12.7254 210.601 12.517 210.412 12.2784C210.223 12.0398 210.077 11.8277 209.974 11.642H209.872V16.2727H208.173ZM209.838 8.63636C209.838 9.25 209.927 9.78788 210.105 10.25C210.283 10.7121 210.541 11.0739 210.878 11.3352C211.215 11.5928 211.628 11.7216 212.116 11.7216C212.624 11.7216 213.048 11.5871 213.389 11.3182C213.73 11.0455 213.988 10.6761 214.162 10.2102C214.34 9.74432 214.429 9.2197 214.429 8.63636C214.429 8.06061 214.342 7.54356 214.168 7.08523C213.997 6.62689 213.74 6.26515 213.395 6C213.054 5.73485 212.628 5.60227 212.116 5.60227C211.624 5.60227 211.207 5.72917 210.866 5.98295C210.529 6.23674 210.274 6.59091 210.099 7.04545C209.925 7.5 209.838 8.0303 209.838 8.63636ZM221.724 13.1761C220.906 13.1761 220.192 12.9886 219.582 12.6136C218.973 12.2386 218.499 11.714 218.162 11.0398C217.825 10.3655 217.656 9.57765 217.656 8.67614C217.656 7.77083 217.825 6.97917 218.162 6.30114C218.499 5.62311 218.973 5.09659 219.582 4.72159C220.192 4.34659 220.906 4.15909 221.724 4.15909C222.543 4.15909 223.257 4.34659 223.866 4.72159C224.476 5.09659 224.95 5.62311 225.287 6.30114C225.624 6.97917 225.793 7.77083 225.793 8.67614C225.793 9.57765 225.624 10.3655 225.287 11.0398C224.95 11.714 224.476 12.2386 223.866 12.6136C223.257 12.9886 222.543 13.1761 221.724 13.1761ZM221.73 11.75C222.26 11.75 222.7 11.6098 223.048 11.3295C223.397 11.0492 223.654 10.6761 223.821 10.2102C223.991 9.74432 224.077 9.23106 224.077 8.67045C224.077 8.11364 223.991 7.60227 223.821 7.13636C223.654 6.66667 223.397 6.28977 223.048 6.00568C222.7 5.72159 222.26 5.57955 221.73 5.57955C221.196 5.57955 220.753 5.72159 220.401 6.00568C220.052 6.28977 219.793 6.66667 219.622 7.13636C219.455 7.60227 219.372 8.11364 219.372 8.67045C219.372 9.23106 219.455 9.74432 219.622 10.2102C219.793 10.6761 220.052 11.0492 220.401 11.3295C220.753 11.6098 221.196 11.75 221.73 11.75ZM227.689 13V4.27273H229.331V5.65909H229.422C229.581 5.18939 229.861 4.82008 230.263 4.55114C230.668 4.27841 231.126 4.14205 231.638 4.14205C231.744 4.14205 231.869 4.14583 232.013 4.15341C232.161 4.16098 232.276 4.17045 232.359 4.18182V5.80682C232.291 5.78788 232.17 5.76705 231.996 5.74432C231.821 5.7178 231.647 5.70455 231.473 5.70455C231.071 5.70455 230.714 5.78977 230.399 5.96023C230.089 6.12689 229.842 6.35985 229.661 6.65909C229.479 6.95455 229.388 7.29167 229.388 7.67045V13H227.689ZM238.419 4.27273V5.63636H233.652V4.27273H238.419ZM234.93 2.18182H236.629V10.4375C236.629 10.767 236.679 11.0152 236.777 11.1818C236.875 11.3447 237.002 11.4564 237.158 11.517C237.317 11.5739 237.489 11.6023 237.675 11.6023C237.811 11.6023 237.93 11.5928 238.033 11.5739C238.135 11.5549 238.214 11.5398 238.271 11.5284L238.578 12.9318C238.48 12.9697 238.339 13.0076 238.158 13.0455C237.976 13.0871 237.749 13.1098 237.476 13.1136C237.029 13.1212 236.612 13.0417 236.226 12.875C235.839 12.7083 235.527 12.4508 235.288 12.1023C235.05 11.7538 234.93 11.3163 234.93 10.7898V2.18182ZM244.452 4.27273V5.63636H239.52V4.27273H244.452ZM240.872 13V3.26136C240.872 2.71591 240.991 2.26326 241.23 1.90341C241.469 1.53977 241.785 1.26894 242.179 1.09091C242.573 0.90909 243.001 0.818181 243.463 0.818181C243.804 0.818181 244.096 0.84659 244.338 0.903409C244.58 0.956439 244.76 1.00568 244.878 1.05114L244.48 2.42614C244.401 2.40341 244.298 2.37689 244.173 2.34659C244.048 2.3125 243.897 2.29545 243.719 2.29545C243.306 2.29545 243.01 2.39773 242.832 2.60227C242.658 2.80682 242.571 3.10227 242.571 3.48864V13H240.872ZM249.537 13.1761C248.719 13.1761 248.005 12.9886 247.395 12.6136C246.785 12.2386 246.312 11.714 245.974 11.0398C245.637 10.3655 245.469 9.57765 245.469 8.67614C245.469 7.77083 245.637 6.97917 245.974 6.30114C246.312 5.62311 246.785 5.09659 247.395 4.72159C248.005 4.34659 248.719 4.15909 249.537 4.15909C250.355 4.15909 251.069 4.34659 251.679 4.72159C252.289 5.09659 252.762 5.62311 253.099 6.30114C253.437 6.97917 253.605 7.77083 253.605 8.67614C253.605 9.57765 253.437 10.3655 253.099 11.0398C252.762 11.714 252.289 12.2386 251.679 12.6136C251.069 12.9886 250.355 13.1761 249.537 13.1761ZM249.543 11.75C250.073 11.75 250.512 11.6098 250.861 11.3295C251.209 11.0492 251.467 10.6761 251.634 10.2102C251.804 9.74432 251.889 9.23106 251.889 8.67045C251.889 8.11364 251.804 7.60227 251.634 7.13636C251.467 6.66667 251.209 6.28977 250.861 6.00568C250.512 5.72159 250.073 5.57955 249.543 5.57955C249.009 5.57955 248.565 5.72159 248.213 6.00568C247.865 6.28977 247.605 6.66667 247.435 7.13636C247.268 7.60227 247.185 8.11364 247.185 8.67045C247.185 9.23106 247.268 9.74432 247.435 10.2102C247.605 10.6761 247.865 11.0492 248.213 11.3295C248.565 11.6098 249.009 11.75 249.543 11.75ZM257.2 1.36364V13H255.501V1.36364H257.2ZM259.486 13V4.27273H261.185V13H259.486ZM260.344 2.92614C260.048 2.92614 259.795 2.82765 259.582 2.63068C259.374 2.42992 259.27 2.19129 259.27 1.91477C259.27 1.63447 259.374 1.39583 259.582 1.19886C259.795 0.998106 260.048 0.897727 260.344 0.897727C260.639 0.897727 260.891 0.998106 261.099 1.19886C261.312 1.39583 261.418 1.63447 261.418 1.91477C261.418 2.19129 261.312 2.42992 261.099 2.63068C260.891 2.82765 260.639 2.92614 260.344 2.92614ZM267.146 13.1761C266.328 13.1761 265.614 12.9886 265.004 12.6136C264.394 12.2386 263.921 11.714 263.584 11.0398C263.247 10.3655 263.078 9.57765 263.078 8.67614C263.078 7.77083 263.247 6.97917 263.584 6.30114C263.921 5.62311 264.394 5.09659 265.004 4.72159C265.614 4.34659 266.328 4.15909 267.146 4.15909C267.964 4.15909 268.679 4.34659 269.288 4.72159C269.898 5.09659 270.372 5.62311 270.709 6.30114C271.046 6.97917 271.214 7.77083 271.214 8.67614C271.214 9.57765 271.046 10.3655 270.709 11.0398C270.372 11.714 269.898 12.2386 269.288 12.6136C268.679 12.9886 267.964 13.1761 267.146 13.1761ZM267.152 11.75C267.682 11.75 268.122 11.6098 268.47 11.3295C268.819 11.0492 269.076 10.6761 269.243 10.2102C269.413 9.74432 269.499 9.23106 269.499 8.67045C269.499 8.11364 269.413 7.60227 269.243 7.13636C269.076 6.66667 268.819 6.28977 268.47 6.00568C268.122 5.72159 267.682 5.57955 267.152 5.57955C266.618 5.57955 266.175 5.72159 265.822 6.00568C265.474 6.28977 265.214 6.66667 265.044 7.13636C264.877 7.60227 264.794 8.11364 264.794 8.67045C264.794 9.23106 264.877 9.74432 265.044 10.2102C265.214 10.6761 265.474 11.0492 265.822 11.3295C266.175 11.6098 266.618 11.75 267.152 11.75ZM3.68182 32.1932C3.12879 32.1932 2.62879 32.0909 2.18182 31.8864C1.73485 31.678 1.38068 31.3769 1.11932 30.983C0.861742 30.589 0.732955 30.1061 0.732955 29.5341C0.732955 29.0417 0.827652 28.6364 1.01705 28.3182C1.20644 28 1.46212 27.7481 1.78409 27.5625C2.10606 27.3769 2.46591 27.2367 2.86364 27.142C3.26136 27.0473 3.66667 26.9754 4.07955 26.9261C4.60227 26.8655 5.02652 26.8163 5.35227 26.7784C5.67803 26.7367 5.91477 26.6705 6.0625 26.5795C6.21023 26.4886 6.28409 26.3409 6.28409 26.1364V26.0966C6.28409 25.6004 6.14394 25.2159 5.86364 24.9432C5.58712 24.6705 5.17424 24.5341 4.625 24.5341C4.05303 24.5341 3.60227 24.661 3.27273 24.9148C2.94697 25.1648 2.72159 25.4432 2.59659 25.75L1 25.3864C1.18939 24.8561 1.46591 24.428 1.82955 24.1023C2.19697 23.7727 2.61932 23.5341 3.09659 23.3864C3.57386 23.2348 4.07576 23.1591 4.60227 23.1591C4.95076 23.1591 5.32008 23.2008 5.71023 23.2841C6.10417 23.3636 6.47159 23.5114 6.8125 23.7273C7.1572 23.9432 7.43939 24.2519 7.65909 24.6534C7.87879 25.0511 7.98864 25.5682 7.98864 26.2045V32H6.32955V30.8068H6.26136C6.15152 31.0265 5.98674 31.2424 5.76705 31.4545C5.54735 31.6667 5.26515 31.8428 4.92045 31.983C4.57576 32.1231 4.16288 32.1932 3.68182 32.1932ZM4.05114 30.8295C4.52083 30.8295 4.92235 30.7367 5.25568 30.5511C5.5928 30.3655 5.84849 30.1231 6.02273 29.8239C6.20076 29.5208 6.28977 29.197 6.28977 28.8523V27.7273C6.22917 27.7879 6.11174 27.8447 5.9375 27.8977C5.76705 27.947 5.57197 27.9905 5.35227 28.0284C5.13258 28.0625 4.91856 28.0947 4.71023 28.125C4.50189 28.1515 4.32765 28.1742 4.1875 28.1932C3.85795 28.2348 3.55682 28.3049 3.28409 28.4034C3.01515 28.5019 2.79924 28.6439 2.63636 28.8295C2.47727 29.0114 2.39773 29.2538 2.39773 29.5568C2.39773 29.9773 2.55303 30.2955 2.86364 30.5114C3.17424 30.7235 3.57008 30.8295 4.05114 30.8295ZM11.9503 26.8182V32H10.2514V23.2727H11.8821V24.6932H11.9901C12.1908 24.2311 12.5052 23.8598 12.9332 23.5795C13.3651 23.2992 13.9086 23.1591 14.5639 23.1591C15.1586 23.1591 15.6795 23.2841 16.1264 23.5341C16.5734 23.7803 16.92 24.1477 17.1662 24.6364C17.4124 25.125 17.5355 25.7292 17.5355 26.4489V32H15.8366V26.6534C15.8366 26.0208 15.6719 25.5265 15.3423 25.1705C15.0128 24.8106 14.5601 24.6307 13.9844 24.6307C13.5904 24.6307 13.2401 24.7159 12.9332 24.8864C12.6302 25.0568 12.3897 25.3068 12.2116 25.6364C12.0374 25.9621 11.9503 26.3561 11.9503 26.8182ZM22.3537 32.1932C21.8007 32.1932 21.3007 32.0909 20.8537 31.8864C20.4067 31.678 20.0526 31.3769 19.7912 30.983C19.5336 30.589 19.4048 30.1061 19.4048 29.5341C19.4048 29.0417 19.4995 28.6364 19.6889 28.3182C19.8783 28 20.134 27.7481 20.456 27.5625C20.7779 27.3769 21.1378 27.2367 21.5355 27.142C21.9332 27.0473 22.3385 26.9754 22.7514 26.9261C23.2741 26.8655 23.6984 26.8163 24.0241 26.7784C24.3499 26.7367 24.5866 26.6705 24.7344 26.5795C24.8821 26.4886 24.956 26.3409 24.956 26.1364V26.0966C24.956 25.6004 24.8158 25.2159 24.5355 24.9432C24.259 24.6705 23.8461 24.5341 23.2969 24.5341C22.7249 24.5341 22.2741 24.661 21.9446 24.9148C21.6188 25.1648 21.3935 25.4432 21.2685 25.75L19.6719 25.3864C19.8613 24.8561 20.1378 24.428 20.5014 24.1023C20.8688 23.7727 21.2912 23.5341 21.7685 23.3864C22.2457 23.2348 22.7476 23.1591 23.2741 23.1591C23.6226 23.1591 23.992 23.2008 24.3821 23.2841C24.776 23.3636 25.1435 23.5114 25.4844 23.7273C25.8291 23.9432 26.1113 24.2519 26.331 24.6534C26.5507 25.0511 26.6605 25.5682 26.6605 26.2045V32H25.0014V30.8068H24.9332C24.8234 31.0265 24.6586 31.2424 24.4389 31.4545C24.2192 31.6667 23.937 31.8428 23.5923 31.983C23.2476 32.1231 22.8348 32.1932 22.3537 32.1932ZM22.723 30.8295C23.1927 30.8295 23.5942 30.7367 23.9276 30.5511C24.2647 30.3655 24.5204 30.1231 24.6946 29.8239C24.8726 29.5208 24.9616 29.197 24.9616 28.8523V27.7273C24.901 27.7879 24.7836 27.8447 24.6094 27.8977C24.4389 27.947 24.2438 27.9905 24.0241 28.0284C23.8045 28.0625 23.5904 28.0947 23.3821 28.125C23.1738 28.1515 22.9995 28.1742 22.8594 28.1932C22.5298 28.2348 22.2287 28.3049 21.956 28.4034C21.687 28.5019 21.4711 28.6439 21.3082 28.8295C21.1491 29.0114 21.0696 29.2538 21.0696 29.5568C21.0696 29.9773 21.2249 30.2955 21.5355 30.5114C21.8461 30.7235 22.242 30.8295 22.723 30.8295ZM30.6222 20.3636V32H28.9233V20.3636H30.6222ZM33.9815 35.2727C33.7277 35.2727 33.4967 35.2519 33.2884 35.2102C33.08 35.1723 32.9247 35.1307 32.8224 35.0852L33.2315 33.6932C33.5421 33.7765 33.8187 33.8125 34.0611 33.8011C34.3035 33.7898 34.5175 33.6989 34.7031 33.5284C34.8925 33.358 35.0592 33.0795 35.2031 32.6932L35.4134 32.1136L32.2202 23.2727H34.0384L36.2486 30.0455H36.3395L38.5497 23.2727H40.3736L36.777 33.1648C36.6103 33.6193 36.3982 34.0038 36.1406 34.3182C35.883 34.6364 35.5762 34.875 35.2202 35.0341C34.8641 35.1932 34.4512 35.2727 33.9815 35.2727ZM46.044 23.2727V24.6364H41.277V23.2727H46.044ZM42.5554 21.1818H44.2543V29.4375C44.2543 29.767 44.3035 30.0152 44.402 30.1818C44.5005 30.3447 44.6274 30.4564 44.7827 30.517C44.9418 30.5739 45.1141 30.6023 45.2997 30.6023C45.4361 30.6023 45.5554 30.5928 45.6577 30.5739C45.7599 30.5549 45.8395 30.5398 45.8963 30.5284L46.2031 31.9318C46.1046 31.9697 45.9645 32.0076 45.7827 32.0455C45.6009 32.0871 45.3736 32.1098 45.1009 32.1136C44.6539 32.1212 44.2372 32.0417 43.8509 31.875C43.4645 31.7083 43.152 31.4508 42.9134 31.1023C42.6747 30.7538 42.5554 30.3163 42.5554 29.7898V21.1818ZM47.9233 32V23.2727H49.6222V32H47.9233ZM48.7812 21.9261C48.4858 21.9261 48.232 21.8277 48.0199 21.6307C47.8116 21.4299 47.7074 21.1913 47.7074 20.9148C47.7074 20.6345 47.8116 20.3958 48.0199 20.1989C48.232 19.9981 48.4858 19.8977 48.7812 19.8977C49.0767 19.8977 49.3286 19.9981 49.5369 20.1989C49.7491 20.3958 49.8551 20.6345 49.8551 20.9148C49.8551 21.1913 49.7491 21.4299 49.5369 21.6307C49.3286 21.8277 49.0767 21.9261 48.7812 21.9261ZM55.5838 32.1761C54.7391 32.1761 54.0118 31.9848 53.402 31.6023C52.7959 31.2159 52.33 30.6837 52.0043 30.0057C51.6785 29.3277 51.5156 28.5511 51.5156 27.6761C51.5156 26.7898 51.6823 26.0076 52.0156 25.3295C52.349 24.6477 52.8187 24.1155 53.4247 23.733C54.0308 23.3504 54.7448 23.1591 55.5668 23.1591C56.2296 23.1591 56.8205 23.2822 57.3395 23.5284C57.8584 23.7708 58.277 24.1117 58.5952 24.5511C58.9171 24.9905 59.1084 25.5038 59.169 26.0909H57.5156C57.4247 25.6818 57.2164 25.3295 56.8906 25.0341C56.5687 24.7386 56.1368 24.5909 55.5952 24.5909C55.1217 24.5909 54.7069 24.7159 54.3509 24.9659C53.9986 25.2121 53.724 25.5644 53.527 26.0227C53.33 26.4773 53.2315 27.0152 53.2315 27.6364C53.2315 28.2727 53.3281 28.822 53.5213 29.2841C53.7145 29.7462 53.9872 30.1042 54.3395 30.358C54.6955 30.6117 55.1141 30.7386 55.5952 30.7386C55.9171 30.7386 56.2088 30.6799 56.4702 30.5625C56.7353 30.4413 56.9569 30.2689 57.1349 30.0455C57.3168 29.822 57.4437 29.553 57.5156 29.2386H59.169C59.1084 29.803 58.9247 30.3068 58.6179 30.75C58.3111 31.1932 57.9001 31.5417 57.3849 31.7955C56.8736 32.0492 56.2732 32.1761 55.5838 32.1761ZM67.5256 25.4034L65.9858 25.6761C65.9214 25.4792 65.8191 25.2917 65.679 25.1136C65.5426 24.9356 65.357 24.7898 65.1222 24.6761C64.8873 24.5625 64.5938 24.5057 64.2415 24.5057C63.7604 24.5057 63.3589 24.6136 63.0369 24.8295C62.715 25.0417 62.554 25.3163 62.554 25.6534C62.554 25.9451 62.6619 26.1799 62.8778 26.358C63.0938 26.536 63.4422 26.6818 63.9233 26.7955L65.3097 27.1136C66.1127 27.2992 66.7112 27.5852 67.1051 27.9716C67.4991 28.358 67.696 28.8598 67.696 29.4773C67.696 30 67.5445 30.4659 67.2415 30.875C66.9422 31.2803 66.5237 31.5985 65.9858 31.8295C65.4517 32.0606 64.8324 32.1761 64.1278 32.1761C63.1506 32.1761 62.3532 31.9678 61.7358 31.5511C61.1184 31.1307 60.7396 30.5341 60.5994 29.7614L62.2415 29.5114C62.3438 29.9394 62.554 30.2633 62.8722 30.483C63.1903 30.6989 63.6051 30.8068 64.1165 30.8068C64.6733 30.8068 65.1184 30.6913 65.4517 30.4602C65.785 30.2254 65.9517 29.9394 65.9517 29.6023C65.9517 29.3295 65.8494 29.1004 65.6449 28.9148C65.4441 28.7292 65.1354 28.589 64.7188 28.4943L63.2415 28.1705C62.4271 27.9848 61.8248 27.6894 61.4347 27.2841C61.0483 26.8788 60.8551 26.3655 60.8551 25.7443C60.8551 25.2292 60.9991 24.7784 61.2869 24.392C61.5748 24.0057 61.9725 23.7045 62.4801 23.4886C62.9877 23.2689 63.5691 23.1591 64.2244 23.1591C65.1676 23.1591 65.91 23.3636 66.4517 23.7727C66.9934 24.178 67.3513 24.7216 67.5256 25.4034ZM76.3381 32.1932C75.785 32.1932 75.285 32.0909 74.8381 31.8864C74.3911 31.678 74.0369 31.3769 73.7756 30.983C73.518 30.589 73.3892 30.1061 73.3892 29.5341C73.3892 29.0417 73.4839 28.6364 73.6733 28.3182C73.8627 28 74.1184 27.7481 74.4403 27.5625C74.7623 27.3769 75.1222 27.2367 75.5199 27.142C75.9176 27.0473 76.3229 26.9754 76.7358 26.9261C77.2585 26.8655 77.6828 26.8163 78.0085 26.7784C78.3343 26.7367 78.571 26.6705 78.7188 26.5795C78.8665 26.4886 78.9403 26.3409 78.9403 26.1364V26.0966C78.9403 25.6004 78.8002 25.2159 78.5199 24.9432C78.2434 24.6705 77.8305 24.5341 77.2812 24.5341C76.7093 24.5341 76.2585 24.661 75.929 24.9148C75.6032 25.1648 75.3778 25.4432 75.2528 25.75L73.6562 25.3864C73.8456 24.8561 74.1222 24.428 74.4858 24.1023C74.8532 23.7727 75.2756 23.5341 75.7528 23.3864C76.2301 23.2348 76.732 23.1591 77.2585 23.1591C77.607 23.1591 77.9763 23.2008 78.3665 23.2841C78.7604 23.3636 79.1278 23.5114 79.4688 23.7273C79.8134 23.9432 80.0956 24.2519 80.3153 24.6534C80.535 25.0511 80.6449 25.5682 80.6449 26.2045V32H78.9858V30.8068H78.9176C78.8078 31.0265 78.643 31.2424 78.4233 31.4545C78.2036 31.6667 77.9214 31.8428 77.5767 31.983C77.232 32.1231 76.8191 32.1932 76.3381 32.1932ZM76.7074 30.8295C77.1771 30.8295 77.5786 30.7367 77.9119 30.5511C78.2491 30.3655 78.5047 30.1231 78.679 29.8239C78.857 29.5208 78.946 29.197 78.946 28.8523V27.7273C78.8854 27.7879 78.768 27.8447 78.5938 27.8977C78.4233 27.947 78.2282 27.9905 78.0085 28.0284C77.7888 28.0625 77.5748 28.0947 77.3665 28.125C77.1581 28.1515 76.9839 28.1742 76.8438 28.1932C76.5142 28.2348 76.2131 28.3049 75.9403 28.4034C75.6714 28.5019 75.4555 28.6439 75.2926 28.8295C75.1335 29.0114 75.054 29.2538 75.054 29.5568C75.054 29.9773 75.2093 30.2955 75.5199 30.5114C75.8305 30.7235 76.2263 30.8295 76.7074 30.8295ZM84.6065 26.8182V32H82.9077V23.2727H84.5384V24.6932H84.6463C84.8471 24.2311 85.1615 23.8598 85.5895 23.5795C86.0213 23.2992 86.5649 23.1591 87.2202 23.1591C87.8149 23.1591 88.3357 23.2841 88.7827 23.5341C89.2296 23.7803 89.5762 24.1477 89.8224 24.6364C90.0687 25.125 90.1918 25.7292 90.1918 26.4489V32H88.4929V26.6534C88.4929 26.0208 88.3281 25.5265 87.9986 25.1705C87.669 24.8106 87.2164 24.6307 86.6406 24.6307C86.2467 24.6307 85.8963 24.7159 85.5895 24.8864C85.2865 25.0568 85.0459 25.3068 84.8679 25.6364C84.6937 25.9621 84.6065 26.3561 84.6065 26.8182ZM95.7372 32.1705C95.0327 32.1705 94.4039 31.9905 93.8509 31.6307C93.3016 31.267 92.8698 30.75 92.5554 30.0795C92.2448 29.4053 92.0895 28.5966 92.0895 27.6534C92.0895 26.7102 92.2467 25.9034 92.5611 25.233C92.8793 24.5625 93.3149 24.0492 93.8679 23.6932C94.4209 23.3371 95.0478 23.1591 95.7486 23.1591C96.2902 23.1591 96.7259 23.25 97.0554 23.4318C97.3887 23.6098 97.6463 23.8182 97.8281 24.0568C98.0137 24.2955 98.1577 24.5057 98.2599 24.6875H98.3622V20.3636H100.061V32H98.402V30.642H98.2599C98.1577 30.8277 98.0099 31.0398 97.8168 31.2784C97.6274 31.517 97.366 31.7254 97.0327 31.9034C96.6993 32.0814 96.2675 32.1705 95.7372 32.1705ZM96.1122 30.7216C96.6009 30.7216 97.0137 30.5928 97.3509 30.3352C97.6918 30.0739 97.9493 29.7121 98.1236 29.25C98.3016 28.7879 98.3906 28.25 98.3906 27.6364C98.3906 27.0303 98.3035 26.5 98.1293 26.0455C97.955 25.5909 97.6993 25.2367 97.3622 24.983C97.0251 24.7292 96.6084 24.6023 96.1122 24.6023C95.6009 24.6023 95.1747 24.7348 94.8338 25C94.4929 25.2652 94.2353 25.6269 94.0611 26.0852C93.8906 26.5436 93.8054 27.0606 93.8054 27.6364C93.8054 28.2197 93.8925 28.7443 94.0668 29.2102C94.241 29.6761 94.4986 30.0455 94.8395 30.3182C95.1842 30.5871 95.6084 30.7216 96.1122 30.7216ZM108.612 32L106.044 23.2727H107.8L109.51 29.6818H109.595L111.311 23.2727H113.067L114.771 29.6534H114.857L116.555 23.2727H118.311L115.749 32H114.016L112.243 25.6989H112.112L110.339 32H108.612ZM121.622 26.8182V32H119.923V20.3636H121.599V24.6932H121.707C121.912 24.2235 122.224 23.8504 122.645 23.5739C123.065 23.2973 123.615 23.1591 124.293 23.1591C124.891 23.1591 125.414 23.2822 125.861 23.5284C126.312 23.7746 126.66 24.142 126.906 24.6307C127.156 25.1155 127.281 25.7216 127.281 26.4489V32H125.582V26.6534C125.582 26.0133 125.418 25.517 125.088 25.1648C124.759 24.8087 124.3 24.6307 123.713 24.6307C123.312 24.6307 122.952 24.7159 122.634 24.8864C122.319 25.0568 122.071 25.3068 121.889 25.6364C121.711 25.9621 121.622 26.3561 121.622 26.8182ZM132.088 32.1932C131.535 32.1932 131.035 32.0909 130.588 31.8864C130.141 31.678 129.787 31.3769 129.526 30.983C129.268 30.589 129.139 30.1061 129.139 29.5341C129.139 29.0417 129.234 28.6364 129.423 28.3182C129.613 28 129.868 27.7481 130.19 27.5625C130.512 27.3769 130.872 27.2367 131.27 27.142C131.668 27.0473 132.073 26.9754 132.486 26.9261C133.009 26.8655 133.433 26.8163 133.759 26.7784C134.084 26.7367 134.321 26.6705 134.469 26.5795C134.616 26.4886 134.69 26.3409 134.69 26.1364V26.0966C134.69 25.6004 134.55 25.2159 134.27 24.9432C133.993 24.6705 133.58 24.5341 133.031 24.5341C132.459 24.5341 132.009 24.661 131.679 24.9148C131.353 25.1648 131.128 25.4432 131.003 25.75L129.406 25.3864C129.596 24.8561 129.872 24.428 130.236 24.1023C130.603 23.7727 131.026 23.5341 131.503 23.3864C131.98 23.2348 132.482 23.1591 133.009 23.1591C133.357 23.1591 133.726 23.2008 134.116 23.2841C134.51 23.3636 134.878 23.5114 135.219 23.7273C135.563 23.9432 135.846 24.2519 136.065 24.6534C136.285 25.0511 136.395 25.5682 136.395 26.2045V32H134.736V30.8068H134.668C134.558 31.0265 134.393 31.2424 134.173 31.4545C133.954 31.6667 133.671 31.8428 133.327 31.983C132.982 32.1231 132.569 32.1932 132.088 32.1932ZM132.457 30.8295C132.927 30.8295 133.329 30.7367 133.662 30.5511C133.999 30.3655 134.255 30.1231 134.429 29.8239C134.607 29.5208 134.696 29.197 134.696 28.8523V27.7273C134.635 27.7879 134.518 27.8447 134.344 27.8977C134.173 27.947 133.978 27.9905 133.759 28.0284C133.539 28.0625 133.325 28.0947 133.116 28.125C132.908 28.1515 132.734 28.1742 132.594 28.1932C132.264 28.2348 131.963 28.3049 131.69 28.4034C131.421 28.5019 131.205 28.6439 131.043 28.8295C130.884 29.0114 130.804 29.2538 130.804 29.5568C130.804 29.9773 130.959 30.2955 131.27 30.5114C131.58 30.7235 131.976 30.8295 132.457 30.8295ZM140.357 20.3636V32H138.658V20.3636H140.357ZM146.403 32.1761C145.544 32.1761 144.803 31.9924 144.182 31.625C143.564 31.2538 143.087 30.733 142.75 30.0625C142.417 29.3883 142.25 28.5985 142.25 27.6932C142.25 26.7992 142.417 26.0114 142.75 25.3295C143.087 24.6477 143.557 24.1155 144.159 23.733C144.765 23.3504 145.473 23.1591 146.284 23.1591C146.777 23.1591 147.254 23.2405 147.716 23.4034C148.178 23.5663 148.593 23.822 148.96 24.1705C149.328 24.5189 149.617 24.9716 149.83 25.5284C150.042 26.0814 150.148 26.7538 150.148 27.5455V28.1477H143.21V26.875H148.483C148.483 26.428 148.392 26.0322 148.21 25.6875C148.028 25.339 147.773 25.0644 147.443 24.8636C147.117 24.6629 146.735 24.5625 146.295 24.5625C145.818 24.5625 145.402 24.6799 145.045 24.9148C144.693 25.1458 144.42 25.4489 144.227 25.8239C144.038 26.1951 143.943 26.5985 143.943 27.0341V28.0284C143.943 28.6117 144.045 29.108 144.25 29.517C144.458 29.9261 144.748 30.2386 145.119 30.4545C145.491 30.6667 145.924 30.7727 146.42 30.7727C146.742 30.7727 147.036 30.7273 147.301 30.6364C147.566 30.5417 147.795 30.4015 147.989 30.2159C148.182 30.0303 148.33 29.8011 148.432 29.5284L150.04 29.8182C149.911 30.2917 149.68 30.7064 149.347 31.0625C149.017 31.4148 148.602 31.6894 148.102 31.8864C147.606 32.0795 147.04 32.1761 146.403 32.1761ZM158.159 32L155.591 23.2727H157.347L159.057 29.6818H159.142L160.858 23.2727H162.614L164.318 29.6534H164.403L166.102 23.2727H167.858L165.295 32H163.562L161.79 25.6989H161.659L159.886 32H158.159ZM172.01 32.1932C171.457 32.1932 170.957 32.0909 170.51 31.8864C170.063 31.678 169.709 31.3769 169.447 30.983C169.19 30.589 169.061 30.1061 169.061 29.5341C169.061 29.0417 169.156 28.6364 169.345 28.3182C169.535 28 169.79 27.7481 170.112 27.5625C170.434 27.3769 170.794 27.2367 171.192 27.142C171.589 27.0473 171.995 26.9754 172.408 26.9261C172.93 26.8655 173.355 26.8163 173.68 26.7784C174.006 26.7367 174.243 26.6705 174.391 26.5795C174.538 26.4886 174.612 26.3409 174.612 26.1364V26.0966C174.612 25.6004 174.472 25.2159 174.192 24.9432C173.915 24.6705 173.502 24.5341 172.953 24.5341C172.381 24.5341 171.93 24.661 171.601 24.9148C171.275 25.1648 171.05 25.4432 170.925 25.75L169.328 25.3864C169.518 24.8561 169.794 24.428 170.158 24.1023C170.525 23.7727 170.947 23.5341 171.425 23.3864C171.902 23.2348 172.404 23.1591 172.93 23.1591C173.279 23.1591 173.648 23.2008 174.038 23.2841C174.432 23.3636 174.8 23.5114 175.141 23.7273C175.485 23.9432 175.768 24.2519 175.987 24.6534C176.207 25.0511 176.317 25.5682 176.317 26.2045V32H174.658V30.8068H174.589C174.48 31.0265 174.315 31.2424 174.095 31.4545C173.875 31.6667 173.593 31.8428 173.249 31.983C172.904 32.1231 172.491 32.1932 172.01 32.1932ZM172.379 30.8295C172.849 30.8295 173.25 30.7367 173.584 30.5511C173.921 30.3655 174.177 30.1231 174.351 29.8239C174.529 29.5208 174.618 29.197 174.618 28.8523V27.7273C174.557 27.7879 174.44 27.8447 174.266 27.8977C174.095 27.947 173.9 27.9905 173.68 28.0284C173.461 28.0625 173.247 28.0947 173.038 28.125C172.83 28.1515 172.656 28.1742 172.516 28.1932C172.186 28.2348 171.885 28.3049 171.612 28.4034C171.343 28.5019 171.127 28.6439 170.964 28.8295C170.805 29.0114 170.726 29.2538 170.726 29.5568C170.726 29.9773 170.881 30.2955 171.192 30.5114C171.502 30.7235 171.898 30.8295 172.379 30.8295ZM182.653 23.2727V24.6364H177.886V23.2727H182.653ZM179.165 21.1818H180.864V29.4375C180.864 29.767 180.913 30.0152 181.011 30.1818C181.11 30.3447 181.237 30.4564 181.392 30.517C181.551 30.5739 181.723 30.6023 181.909 30.6023C182.045 30.6023 182.165 30.5928 182.267 30.5739C182.369 30.5549 182.449 30.5398 182.506 30.5284L182.812 31.9318C182.714 31.9697 182.574 32.0076 182.392 32.0455C182.21 32.0871 181.983 32.1098 181.71 32.1136C181.263 32.1212 180.847 32.0417 180.46 31.875C180.074 31.7083 179.761 31.4508 179.523 31.1023C179.284 30.7538 179.165 30.3163 179.165 29.7898V21.1818ZM188.115 32.1761C187.27 32.1761 186.543 31.9848 185.933 31.6023C185.327 31.2159 184.861 30.6837 184.536 30.0057C184.21 29.3277 184.047 28.5511 184.047 27.6761C184.047 26.7898 184.214 26.0076 184.547 25.3295C184.88 24.6477 185.35 24.1155 185.956 23.733C186.562 23.3504 187.276 23.1591 188.098 23.1591C188.761 23.1591 189.352 23.2822 189.871 23.5284C190.39 23.7708 190.808 24.1117 191.126 24.5511C191.448 24.9905 191.64 25.5038 191.7 26.0909H190.047C189.956 25.6818 189.748 25.3295 189.422 25.0341C189.1 24.7386 188.668 24.5909 188.126 24.5909C187.653 24.5909 187.238 24.7159 186.882 24.9659C186.53 25.2121 186.255 25.5644 186.058 26.0227C185.861 26.4773 185.763 27.0152 185.763 27.6364C185.763 28.2727 185.859 28.822 186.053 29.2841C186.246 29.7462 186.518 30.1042 186.871 30.358C187.227 30.6117 187.645 30.7386 188.126 30.7386C188.448 30.7386 188.74 30.6799 189.001 30.5625C189.267 30.4413 189.488 30.2689 189.666 30.0455C189.848 29.822 189.975 29.553 190.047 29.2386H191.7C191.64 29.803 191.456 30.3068 191.149 30.75C190.842 31.1932 190.431 31.5417 189.916 31.7955C189.405 32.0492 188.804 32.1761 188.115 32.1761ZM195.216 26.8182V32H193.517V20.3636H195.193V24.6932H195.301C195.506 24.2235 195.818 23.8504 196.239 23.5739C196.659 23.2973 197.208 23.1591 197.886 23.1591C198.485 23.1591 199.008 23.2822 199.455 23.5284C199.905 23.7746 200.254 24.142 200.5 24.6307C200.75 25.1155 200.875 25.7216 200.875 26.4489V32H199.176V26.6534C199.176 26.0133 199.011 25.517 198.682 25.1648C198.352 24.8087 197.894 24.6307 197.307 24.6307C196.905 24.6307 196.545 24.7159 196.227 24.8864C195.913 25.0568 195.665 25.3068 195.483 25.6364C195.305 25.9621 195.216 26.3561 195.216 26.8182ZM203.142 32V23.2727H204.841V32H203.142ZM204 21.9261C203.705 21.9261 203.451 21.8277 203.239 21.6307C203.03 21.4299 202.926 21.1913 202.926 20.9148C202.926 20.6345 203.03 20.3958 203.239 20.1989C203.451 19.9981 203.705 19.8977 204 19.8977C204.295 19.8977 204.547 19.9981 204.756 20.1989C204.968 20.3958 205.074 20.6345 205.074 20.9148C205.074 21.1913 204.968 21.4299 204.756 21.6307C204.547 21.8277 204.295 21.9261 204 21.9261ZM208.825 26.8182V32H207.126V23.2727H208.757V24.6932H208.865C209.066 24.2311 209.38 23.8598 209.808 23.5795C210.24 23.2992 210.784 23.1591 211.439 23.1591C212.034 23.1591 212.554 23.2841 213.001 23.5341C213.448 23.7803 213.795 24.1477 214.041 24.6364C214.287 25.125 214.411 25.7292 214.411 26.4489V32H212.712V26.6534C212.712 26.0208 212.547 25.5265 212.217 25.1705C211.888 24.8106 211.435 24.6307 210.859 24.6307C210.465 24.6307 210.115 24.7159 209.808 24.8864C209.505 25.0568 209.265 25.3068 209.087 25.6364C208.912 25.9621 208.825 26.3561 208.825 26.8182ZM220.348 35.4545C219.655 35.4545 219.058 35.3636 218.558 35.1818C218.062 35 217.657 34.7595 217.342 34.4602C217.028 34.161 216.793 33.8333 216.638 33.4773L218.098 32.875C218.2 33.0417 218.337 33.2178 218.507 33.4034C218.681 33.5928 218.916 33.7538 219.212 33.8864C219.511 34.0189 219.895 34.0852 220.365 34.0852C221.009 34.0852 221.541 33.928 221.962 33.6136C222.382 33.303 222.592 32.8068 222.592 32.125V30.4091H222.484C222.382 30.5947 222.234 30.8011 222.041 31.0284C221.852 31.2557 221.59 31.4527 221.257 31.6193C220.924 31.786 220.49 31.8693 219.956 31.8693C219.267 31.8693 218.645 31.7083 218.092 31.3864C217.543 31.0606 217.107 30.5814 216.786 29.9489C216.467 29.3125 216.308 28.5303 216.308 27.6023C216.308 26.6742 216.465 25.8788 216.78 25.2159C217.098 24.553 217.534 24.0455 218.087 23.6932C218.64 23.3371 219.267 23.1591 219.967 23.1591C220.509 23.1591 220.946 23.25 221.28 23.4318C221.613 23.6098 221.873 23.8182 222.058 24.0568C222.248 24.2955 222.393 24.5057 222.496 24.6875H222.621V23.2727H224.286V32.1932C224.286 32.9432 224.111 33.5587 223.763 34.0398C223.414 34.5208 222.943 34.8769 222.348 35.108C221.757 35.339 221.09 35.4545 220.348 35.4545ZM220.331 30.4602C220.82 30.4602 221.232 30.3466 221.57 30.1193C221.911 29.8883 222.168 29.5587 222.342 29.1307C222.52 28.6989 222.609 28.1818 222.609 27.5795C222.609 26.9924 222.522 26.4754 222.348 26.0284C222.174 25.5814 221.918 25.233 221.581 24.983C221.244 24.7292 220.827 24.6023 220.331 24.6023C219.82 24.6023 219.393 24.7348 219.053 25C218.712 25.2614 218.454 25.6174 218.28 26.0682C218.109 26.5189 218.024 27.0227 218.024 27.5795C218.024 28.1515 218.111 28.6534 218.286 29.0852C218.46 29.517 218.717 29.8542 219.058 30.0966C219.403 30.339 219.827 30.4602 220.331 30.4602ZM230.798 32V23.2727H232.497V32H230.798ZM231.656 21.9261C231.361 21.9261 231.107 21.8277 230.895 21.6307C230.687 21.4299 230.582 21.1913 230.582 20.9148C230.582 20.6345 230.687 20.3958 230.895 20.1989C231.107 19.9981 231.361 19.8977 231.656 19.8977C231.952 19.8977 232.204 19.9981 232.412 20.1989C232.624 20.3958 232.73 20.6345 232.73 20.9148C232.73 21.1913 232.624 21.4299 232.412 21.6307C232.204 21.8277 231.952 21.9261 231.656 21.9261ZM236.482 26.8182V32H234.783V23.2727H236.413V24.6932H236.521C236.722 24.2311 237.036 23.8598 237.464 23.5795C237.896 23.2992 238.44 23.1591 239.095 23.1591C239.69 23.1591 240.211 23.2841 240.658 23.5341C241.105 23.7803 241.451 24.1477 241.697 24.6364C241.944 25.125 242.067 25.7292 242.067 26.4489V32H240.368V26.6534C240.368 26.0208 240.203 25.5265 239.874 25.1705C239.544 24.8106 239.091 24.6307 238.516 24.6307C238.122 24.6307 237.771 24.7159 237.464 24.8864C237.161 25.0568 236.921 25.3068 236.743 25.6364C236.569 25.9621 236.482 26.3561 236.482 26.8182ZM248.419 23.2727V24.6364H243.652V23.2727H248.419ZM244.93 21.1818H246.629V29.4375C246.629 29.767 246.679 30.0152 246.777 30.1818C246.875 30.3447 247.002 30.4564 247.158 30.517C247.317 30.5739 247.489 30.6023 247.675 30.6023C247.811 30.6023 247.93 30.5928 248.033 30.5739C248.135 30.5549 248.214 30.5398 248.271 30.5284L248.578 31.9318C248.48 31.9697 248.339 32.0076 248.158 32.0455C247.976 32.0871 247.749 32.1098 247.476 32.1136C247.029 32.1212 246.612 32.0417 246.226 31.875C245.839 31.7083 245.527 31.4508 245.288 31.1023C245.05 30.7538 244.93 30.3163 244.93 29.7898V21.1818ZM253.881 32.1761C253.063 32.1761 252.348 31.9886 251.739 31.6136C251.129 31.2386 250.655 30.714 250.318 30.0398C249.981 29.3655 249.812 28.5777 249.812 27.6761C249.812 26.7708 249.981 25.9792 250.318 25.3011C250.655 24.6231 251.129 24.0966 251.739 23.7216C252.348 23.3466 253.063 23.1591 253.881 23.1591C254.699 23.1591 255.413 23.3466 256.023 23.7216C256.633 24.0966 257.106 24.6231 257.443 25.3011C257.78 25.9792 257.949 26.7708 257.949 27.6761C257.949 28.5777 257.78 29.3655 257.443 30.0398C257.106 30.714 256.633 31.2386 256.023 31.6136C255.413 31.9886 254.699 32.1761 253.881 32.1761ZM253.886 30.75C254.417 30.75 254.856 30.6098 255.205 30.3295C255.553 30.0492 255.811 29.6761 255.977 29.2102C256.148 28.7443 256.233 28.2311 256.233 27.6705C256.233 27.1136 256.148 26.6023 255.977 26.1364C255.811 25.6667 255.553 25.2898 255.205 25.0057C254.856 24.7216 254.417 24.5795 253.886 24.5795C253.352 24.5795 252.909 24.7216 252.557 25.0057C252.208 25.2898 251.949 25.6667 251.778 26.1364C251.612 26.6023 251.528 27.1136 251.528 27.6705C251.528 28.2311 251.612 28.7443 251.778 29.2102C251.949 29.6761 252.208 30.0492 252.557 30.3295C252.909 30.6098 253.352 30.75 253.886 30.75ZM267.756 32.1761C266.938 32.1761 266.223 31.9886 265.614 31.6136C265.004 31.2386 264.53 30.714 264.193 30.0398C263.856 29.3655 263.688 28.5777 263.688 27.6761C263.688 26.7708 263.856 25.9792 264.193 25.3011C264.53 24.6231 265.004 24.0966 265.614 23.7216C266.223 23.3466 266.938 23.1591 267.756 23.1591C268.574 23.1591 269.288 23.3466 269.898 23.7216C270.508 24.0966 270.981 24.6231 271.318 25.3011C271.655 25.9792 271.824 26.7708 271.824 27.6761C271.824 28.5777 271.655 29.3655 271.318 30.0398C270.981 30.714 270.508 31.2386 269.898 31.6136C269.288 31.9886 268.574 32.1761 267.756 32.1761ZM267.761 30.75C268.292 30.75 268.731 30.6098 269.08 30.3295C269.428 30.0492 269.686 29.6761 269.852 29.2102C270.023 28.7443 270.108 28.2311 270.108 27.6705C270.108 27.1136 270.023 26.6023 269.852 26.1364C269.686 25.6667 269.428 25.2898 269.08 25.0057C268.731 24.7216 268.292 24.5795 267.761 24.5795C267.227 24.5795 266.784 24.7216 266.432 25.0057C266.083 25.2898 265.824 25.6667 265.653 26.1364C265.487 26.6023 265.403 27.1136 265.403 27.6705C265.403 28.2311 265.487 28.7443 265.653 29.2102C265.824 29.6761 266.083 30.0492 266.432 30.3295C266.784 30.6098 267.227 30.75 267.761 30.75ZM275.419 26.8182V32H273.72V23.2727H275.351V24.6932H275.459C275.66 24.2311 275.974 23.8598 276.402 23.5795C276.834 23.2992 277.377 23.1591 278.033 23.1591C278.627 23.1591 279.148 23.2841 279.595 23.5341C280.042 23.7803 280.389 24.1477 280.635 24.6364C280.881 25.125 281.004 25.7292 281.004 26.4489V32H279.305V26.6534C279.305 26.0208 279.141 25.5265 278.811 25.1705C278.482 24.8106 278.029 24.6307 277.453 24.6307C277.059 24.6307 276.709 24.7159 276.402 24.8864C276.099 25.0568 275.858 25.3068 275.68 25.6364C275.506 25.9621 275.419 26.3561 275.419 26.8182ZM287.044 32.1761C286.184 32.1761 285.444 31.9924 284.822 31.625C284.205 31.2538 283.728 30.733 283.391 30.0625C283.057 29.3883 282.891 28.5985 282.891 27.6932C282.891 26.7992 283.057 26.0114 283.391 25.3295C283.728 24.6477 284.197 24.1155 284.8 23.733C285.406 23.3504 286.114 23.1591 286.925 23.1591C287.417 23.1591 287.894 23.2405 288.357 23.4034C288.819 23.5663 289.233 23.822 289.601 24.1705C289.968 24.5189 290.258 24.9716 290.47 25.5284C290.682 26.0814 290.788 26.7538 290.788 27.5455V28.1477H283.851V26.875H289.124C289.124 26.428 289.033 26.0322 288.851 25.6875C288.669 25.339 288.413 25.0644 288.084 24.8636C287.758 24.6629 287.375 24.5625 286.936 24.5625C286.459 24.5625 286.042 24.6799 285.686 24.9148C285.334 25.1458 285.061 25.4489 284.868 25.8239C284.679 26.1951 284.584 26.5985 284.584 27.0341V28.0284C284.584 28.6117 284.686 29.108 284.891 29.517C285.099 29.9261 285.389 30.2386 285.76 30.4545C286.131 30.6667 286.565 30.7727 287.061 30.7727C287.383 30.7727 287.677 30.7273 287.942 30.6364C288.207 30.5417 288.436 30.4015 288.629 30.2159C288.822 30.0303 288.97 29.8011 289.072 29.5284L290.68 29.8182C290.552 30.2917 290.321 30.7064 289.987 31.0625C289.658 31.4148 289.243 31.6894 288.743 31.8864C288.247 32.0795 287.68 32.1761 287.044 32.1761ZM6.67045 47.3807V42.2727H8.375V51H6.70455V49.4886H6.61364C6.41288 49.9545 6.09091 50.3428 5.64773 50.6534C5.20833 50.9602 4.66098 51.1136 4.00568 51.1136C3.44508 51.1136 2.94886 50.9905 2.51705 50.7443C2.08902 50.4943 1.75189 50.125 1.50568 49.6364C1.26326 49.1477 1.14205 48.5436 1.14205 47.8239V42.2727H2.84091V47.6193C2.84091 48.214 3.00568 48.6875 3.33523 49.0398C3.66477 49.392 4.0928 49.5682 4.61932 49.5682C4.9375 49.5682 5.25379 49.4886 5.56818 49.3295C5.88636 49.1705 6.14962 48.9299 6.35795 48.608C6.57008 48.286 6.67424 47.8769 6.67045 47.3807ZM12.3565 45.8182V51H10.6577V42.2727H12.2884V43.6932H12.3963C12.5971 43.2311 12.9115 42.8598 13.3395 42.5795C13.7713 42.2992 14.3149 42.1591 14.9702 42.1591C15.5649 42.1591 16.0857 42.2841 16.5327 42.5341C16.9796 42.7803 17.3262 43.1477 17.5724 43.6364C17.8187 44.125 17.9418 44.7292 17.9418 45.4489V51H16.2429V45.6534C16.2429 45.0208 16.0781 44.5265 15.7486 44.1705C15.419 43.8106 14.9664 43.6307 14.3906 43.6307C13.9967 43.6307 13.6463 43.7159 13.3395 43.8864C13.0365 44.0568 12.7959 44.3068 12.6179 44.6364C12.4437 44.9621 12.3565 45.3561 12.3565 45.8182ZM20.2202 51V42.2727H21.919V51H20.2202ZM21.0781 40.9261C20.7827 40.9261 20.5289 40.8277 20.3168 40.6307C20.1084 40.4299 20.0043 40.1913 20.0043 39.9148C20.0043 39.6345 20.1084 39.3958 20.3168 39.1989C20.5289 38.9981 20.7827 38.8977 21.0781 38.8977C21.3736 38.8977 21.6255 38.9981 21.8338 39.1989C22.0459 39.3958 22.152 39.6345 22.152 39.9148C22.152 40.1913 22.0459 40.4299 21.8338 40.6307C21.6255 40.8277 21.3736 40.9261 21.0781 40.9261ZM28.358 42.2727V43.6364H23.4261V42.2727H28.358ZM24.7784 51V41.2614C24.7784 40.7159 24.8977 40.2633 25.1364 39.9034C25.375 39.5398 25.6913 39.2689 26.0852 39.0909C26.4792 38.9091 26.9072 38.8182 27.3693 38.8182C27.7102 38.8182 28.0019 38.8466 28.2443 38.9034C28.4867 38.9564 28.6667 39.0057 28.7841 39.0511L28.3864 40.4261C28.3068 40.4034 28.2045 40.3769 28.0795 40.3466C27.9545 40.3125 27.803 40.2955 27.625 40.2955C27.2121 40.2955 26.9167 40.3977 26.7386 40.6023C26.5644 40.8068 26.4773 41.1023 26.4773 41.4886V51H24.7784ZM30.1108 51V42.2727H31.8097V51H30.1108ZM30.9688 40.9261C30.6733 40.9261 30.4195 40.8277 30.2074 40.6307C29.9991 40.4299 29.8949 40.1913 29.8949 39.9148C29.8949 39.6345 29.9991 39.3958 30.2074 39.1989C30.4195 38.9981 30.6733 38.8977 30.9688 38.8977C31.2642 38.8977 31.5161 38.9981 31.7244 39.1989C31.9366 39.3958 32.0426 39.6345 32.0426 39.9148C32.0426 40.1913 31.9366 40.4299 31.7244 40.6307C31.5161 40.8277 31.2642 40.9261 30.9688 40.9261ZM37.8565 51.1761C36.9967 51.1761 36.2562 50.9924 35.6349 50.625C35.0175 50.2538 34.5402 49.733 34.2031 49.0625C33.8698 48.3883 33.7031 47.5985 33.7031 46.6932C33.7031 45.7992 33.8698 45.0114 34.2031 44.3295C34.5402 43.6477 35.0099 43.1155 35.6122 42.733C36.2183 42.3504 36.9266 42.1591 37.7372 42.1591C38.2296 42.1591 38.7069 42.2405 39.169 42.4034C39.6312 42.5663 40.0459 42.822 40.4134 43.1705C40.7808 43.5189 41.0705 43.9716 41.2827 44.5284C41.4948 45.0814 41.6009 45.7538 41.6009 46.5455V47.1477H34.6634V45.875H39.9361C39.9361 45.428 39.8452 45.0322 39.6634 44.6875C39.4815 44.339 39.2259 44.0644 38.8963 43.8636C38.5705 43.6629 38.188 43.5625 37.7486 43.5625C37.2713 43.5625 36.8546 43.6799 36.4986 43.9148C36.1463 44.1458 35.8736 44.4489 35.6804 44.8239C35.491 45.1951 35.3963 45.5985 35.3963 46.0341V47.0284C35.3963 47.6117 35.4986 48.108 35.7031 48.517C35.9115 48.9261 36.2012 49.2386 36.5724 49.4545C36.9437 49.6667 37.3774 49.7727 37.8736 49.7727C38.1955 49.7727 38.4891 49.7273 38.7543 49.6364C39.0194 49.5417 39.2486 49.4015 39.4418 49.2159C39.6349 49.0303 39.7827 48.8011 39.8849 48.5284L41.4929 48.8182C41.3641 49.2917 41.133 49.7064 40.7997 50.0625C40.4702 50.4148 40.0554 50.6894 39.5554 50.8864C39.0592 51.0795 38.4929 51.1761 37.8565 51.1761ZM46.7528 51.1705C46.0483 51.1705 45.4195 50.9905 44.8665 50.6307C44.3172 50.267 43.8854 49.75 43.571 49.0795C43.2604 48.4053 43.1051 47.5966 43.1051 46.6534C43.1051 45.7102 43.2623 44.9034 43.5767 44.233C43.8949 43.5625 44.3305 43.0492 44.8835 42.6932C45.4366 42.3371 46.0634 42.1591 46.7642 42.1591C47.3059 42.1591 47.7415 42.25 48.071 42.4318C48.4044 42.6098 48.6619 42.8182 48.8438 43.0568C49.0294 43.2955 49.1733 43.5057 49.2756 43.6875H49.3778V39.3636H51.0767V51H49.4176V49.642H49.2756C49.1733 49.8277 49.0256 50.0398 48.8324 50.2784C48.643 50.517 48.3816 50.7254 48.0483 50.9034C47.715 51.0814 47.2831 51.1705 46.7528 51.1705ZM47.1278 49.7216C47.6165 49.7216 48.0294 49.5928 48.3665 49.3352C48.7074 49.0739 48.965 48.7121 49.1392 48.25C49.3172 47.7879 49.4062 47.25 49.4062 46.6364C49.4062 46.0303 49.3191 45.5 49.1449 45.0455C48.9706 44.5909 48.715 44.2367 48.3778 43.983C48.0407 43.7292 47.6241 43.6023 47.1278 43.6023C46.6165 43.6023 46.1903 43.7348 45.8494 44C45.5085 44.2652 45.2509 44.6269 45.0767 45.0852C44.9063 45.5436 44.821 46.0606 44.821 46.6364C44.821 47.2197 44.9081 47.7443 45.0824 48.2102C45.2566 48.6761 45.5142 49.0455 45.8551 49.3182C46.1998 49.5871 46.6241 49.7216 47.1278 49.7216ZM60.2756 51.1932C59.7225 51.1932 59.2225 51.0909 58.7756 50.8864C58.3286 50.678 57.9744 50.3769 57.7131 49.983C57.4555 49.589 57.3267 49.1061 57.3267 48.5341C57.3267 48.0417 57.4214 47.6364 57.6108 47.3182C57.8002 47 58.0559 46.7481 58.3778 46.5625C58.6998 46.3769 59.0597 46.2367 59.4574 46.142C59.8551 46.0473 60.2604 45.9754 60.6733 45.9261C61.196 45.8655 61.6203 45.8163 61.946 45.7784C62.2718 45.7367 62.5085 45.6705 62.6562 45.5795C62.804 45.4886 62.8778 45.3409 62.8778 45.1364V45.0966C62.8778 44.6004 62.7377 44.2159 62.4574 43.9432C62.1809 43.6705 61.768 43.5341 61.2188 43.5341C60.6468 43.5341 60.196 43.661 59.8665 43.9148C59.5407 44.1648 59.3153 44.4432 59.1903 44.75L57.5938 44.3864C57.7831 43.8561 58.0597 43.428 58.4233 43.1023C58.7907 42.7727 59.2131 42.5341 59.6903 42.3864C60.1676 42.2348 60.6695 42.1591 61.196 42.1591C61.5445 42.1591 61.9138 42.2008 62.304 42.2841C62.6979 42.3636 63.0653 42.5114 63.4062 42.7273C63.7509 42.9432 64.0331 43.2519 64.2528 43.6534C64.4725 44.0511 64.5824 44.5682 64.5824 45.2045V51H62.9233V49.8068H62.8551C62.7453 50.0265 62.5805 50.2424 62.3608 50.4545C62.1411 50.6667 61.8589 50.8428 61.5142 50.983C61.1695 51.1231 60.7566 51.1932 60.2756 51.1932ZM60.6449 49.8295C61.1146 49.8295 61.5161 49.7367 61.8494 49.5511C62.1866 49.3655 62.4422 49.1231 62.6165 48.8239C62.7945 48.5208 62.8835 48.197 62.8835 47.8523V46.7273C62.8229 46.7879 62.7055 46.8447 62.5312 46.8977C62.3608 46.947 62.1657 46.9905 61.946 47.0284C61.7263 47.0625 61.5123 47.0947 61.304 47.125C61.0956 47.1515 60.9214 47.1742 60.7812 47.1932C60.4517 47.2348 60.1506 47.3049 59.8778 47.4034C59.6089 47.5019 59.393 47.6439 59.2301 47.8295C59.071 48.0114 58.9915 48.2538 58.9915 48.5568C58.9915 48.9773 59.1468 49.2955 59.4574 49.5114C59.768 49.7235 60.1638 49.8295 60.6449 49.8295ZM66.8452 54.2727V42.2727H68.5043V43.6875H68.6463C68.7448 43.5057 68.8868 43.2955 69.0724 43.0568C69.258 42.8182 69.5156 42.6098 69.8452 42.4318C70.1747 42.25 70.6103 42.1591 71.152 42.1591C71.8565 42.1591 72.4853 42.3371 73.0384 42.6932C73.5914 43.0492 74.0251 43.5625 74.3395 44.233C74.6577 44.9034 74.8168 45.7102 74.8168 46.6534C74.8168 47.5966 74.6596 48.4053 74.3452 49.0795C74.0308 49.75 73.599 50.267 73.0497 50.6307C72.5005 50.9905 71.8736 51.1705 71.169 51.1705C70.6387 51.1705 70.205 51.0814 69.8679 50.9034C69.5346 50.7254 69.2732 50.517 69.0838 50.2784C68.8944 50.0398 68.7486 49.8277 68.6463 49.642H68.544V54.2727H66.8452ZM68.5099 46.6364C68.5099 47.25 68.599 47.7879 68.777 48.25C68.955 48.7121 69.2126 49.0739 69.5497 49.3352C69.8868 49.5928 70.2997 49.7216 70.7884 49.7216C71.2959 49.7216 71.7202 49.5871 72.0611 49.3182C72.402 49.0455 72.6596 48.6761 72.8338 48.2102C73.0118 47.7443 73.1009 47.2197 73.1009 46.6364C73.1009 46.0606 73.0137 45.5436 72.8395 45.0852C72.669 44.6269 72.4115 44.2652 72.0668 44C71.7259 43.7348 71.2997 43.6023 70.7884 43.6023C70.2959 43.6023 69.8793 43.7292 69.5384 43.983C69.2012 44.2367 68.9455 44.5909 68.7713 45.0455C68.5971 45.5 68.5099 46.0303 68.5099 46.6364ZM76.7202 54.2727V42.2727H78.3793V43.6875H78.5213C78.6198 43.5057 78.7618 43.2955 78.9474 43.0568C79.133 42.8182 79.3906 42.6098 79.7202 42.4318C80.0497 42.25 80.4853 42.1591 81.027 42.1591C81.7315 42.1591 82.3603 42.3371 82.9134 42.6932C83.4664 43.0492 83.9001 43.5625 84.2145 44.233C84.5327 44.9034 84.6918 45.7102 84.6918 46.6534C84.6918 47.5966 84.5346 48.4053 84.2202 49.0795C83.9058 49.75 83.474 50.267 82.9247 50.6307C82.3755 50.9905 81.7486 51.1705 81.044 51.1705C80.5137 51.1705 80.08 51.0814 79.7429 50.9034C79.4096 50.7254 79.1482 50.517 78.9588 50.2784C78.7694 50.0398 78.6236 49.8277 78.5213 49.642H78.419V54.2727H76.7202ZM78.3849 46.6364C78.3849 47.25 78.474 47.7879 78.652 48.25C78.83 48.7121 79.0876 49.0739 79.4247 49.3352C79.7618 49.5928 80.1747 49.7216 80.6634 49.7216C81.1709 49.7216 81.5952 49.5871 81.9361 49.3182C82.277 49.0455 82.5346 48.6761 82.7088 48.2102C82.8868 47.7443 82.9759 47.2197 82.9759 46.6364C82.9759 46.0606 82.8887 45.5436 82.7145 45.0852C82.544 44.6269 82.2865 44.2652 81.9418 44C81.6009 43.7348 81.1747 43.6023 80.6634 43.6023C80.1709 43.6023 79.7543 43.7292 79.4134 43.983C79.0762 44.2367 78.8205 44.5909 78.6463 45.0455C78.4721 45.5 78.3849 46.0303 78.3849 46.6364ZM87.7145 51.108C87.4039 51.108 87.1368 50.9981 86.9134 50.7784C86.6899 50.5549 86.5781 50.286 86.5781 49.9716C86.5781 49.661 86.6899 49.3958 86.9134 49.1761C87.1368 48.9527 87.4039 48.8409 87.7145 48.8409C88.0251 48.8409 88.2921 48.9527 88.5156 49.1761C88.7391 49.3958 88.8509 49.661 88.8509 49.9716C88.8509 50.1799 88.7978 50.3712 88.6918 50.5455C88.5895 50.7159 88.4531 50.8523 88.2827 50.9545C88.1122 51.0568 87.9228 51.108 87.7145 51.108ZM91.446 39.3636V40.4545C91.446 40.7765 91.3854 41.1155 91.2642 41.4716C91.1468 41.8239 90.9801 42.1629 90.7642 42.4886C90.5483 42.8144 90.2945 43.0947 90.0028 43.3295L89.1619 42.7273C89.3854 42.4015 89.5786 42.0549 89.7415 41.6875C89.9081 41.3201 89.9915 40.9148 89.9915 40.4716V39.3636H91.446ZM94.3381 39.3636V40.4545C94.3381 40.7765 94.2775 41.1155 94.1562 41.4716C94.0388 41.8239 93.8722 42.1629 93.6562 42.4886C93.4403 42.8144 93.1866 43.0947 92.8949 43.3295L92.054 42.7273C92.2775 42.4015 92.4706 42.0549 92.6335 41.6875C92.8002 41.3201 92.8835 40.9148 92.8835 40.4716V39.3636H94.3381Z" fill="#1D2129" style="fill:#1D2129;fill:color(display-p3 0.1137 0.1294 0.1608);fill-opacity:1;"/>
</svg>
